<svg width="250" height="250" viewBox="0 0 250 250" fill="none" xmlns="http://www.w3.org/2000/svg">
<path d="M215 112C215 128.016 202.24 141 186.5 141C170.76 141 158 128.016 158 112C158 95.9837 170.76 83 186.5 83C202.24 83 215 95.9837 215 112Z" fill="#EDEDED"/>
<path d="M232 196C232 171.147 211.629 151 186.5 151C161.371 151 141 171.147 141 196H232Z" fill="#EDEDED"/>
<path d="M94 112C94 128.016 81.2401 141 65.5 141C49.7599 141 37 128.016 37 112C37 95.9837 49.7599 83 65.5 83C81.2401 83 94 95.9837 94 112Z" fill="#EDEDED"/>
<path d="M111 196C111 171.147 90.629 151 65.5 151C40.371 151 20 171.147 20 196H111Z" fill="#EDEDED"/>
<path d="M171 79C171 104.405 150.405 125 125 125C99.5949 125 79 104.405 79 79C79 53.5949 99.5949 33 125 33C150.405 33 171 53.5949 171 79Z" fill="#D9D9D9"/>
<path d="M198 214C198 173.683 165.317 141 125 141C84.6832 141 52 173.683 52 214H198Z" fill="#D9D9D9"/>
</svg>
